<?xml version="1.0" encoding="utf-8"?>
<!-- Generator: Adobe Illustrator 22.1.0, SVG Export Plug-In . SVG Version: 6.00 Build 0)  -->
<svg version="1.1" id="Layer_1" xmlns="http://www.w3.org/2000/svg" xmlns:xlink="http://www.w3.org/1999/xlink" x="0px" y="0px"
	 viewBox="0 0 900 500" style="enable-background:new 0 0 900 500;" xml:space="preserve">
<style type="text/css">
	.st0{fill:#F3F2F2;}
</style>
<title>Code lines</title>
<path class="st0" d="M818.2,278.8c-15.5,0-30.9,0-46.3,0c-1.1,0-2.7,0.6-3.1-1.2c-0.6-2.7,1-3,3.1-2.9c14.5,0.1,29,0,43.6,0h2.8
	V278.8z"/>
<path class="st0" d="M83.2,479.1h38.1c1.6,0,3.3-0.4,3.2,2.2c-0.1,2.5-1.9,1.9-3.2,1.9c-12.7,0-25.4,0-38.1,0V479.1z"/>
<path class="st0" d="M324.7,42.7c0.5,3.4-1.1,4.3-4.3,4.2c-5.9-0.2-11.9-0.3-17.8,0c-3.4,0.2-4.6-1-4-4.2L324.7,42.7z"/>
<path class="st0" d="M83.2,111.5h19.2c1.4,0,2.9-0.3,2.8,1.9c-0.1,1.9-1.3,2.2-2.8,2.2c-6.4,0-12.8,0-19.2,0L83.2,111.5z"/>
<path class="st0" d="M473.4,324.2c-17.2,0-34.4,0-51.6,0c-1.3,0-3.2,0.8-3.5-1.6c-0.1-1.4,0.1-2.5,1.9-2.5c0.6,0,1.1,0,1.7,0
	c34.5,0,69,0,103.5,0c1.2,0,2.6-0.6,3.4,0.8c1,1.7-0.2,3.3-2.6,3.3c-9.8,0-19.7,0-29.6,0H473.4z"/>
<path class="st0" d="M737.9,413.7c-13.4,0-26.8,0-40.2,0c-1.5,0-3.4,0.5-3.3-2.1c0-2.4,1.8-2,3.2-2h81.1c1.4,0,3.1-0.5,3.2,2
	c0,2.7-1.8,2.1-3.3,2.1C764.9,413.7,751.4,413.7,737.9,413.7z"/>
<path class="st0" d="M770.6,422.6c-9.8,0-19.5,0-29.2,0c-2.2,0-3.2-0.5-3-2.9s1.6-1.9,3.1-1.8c4.5,0.1,9,0.1,13.5,0.2
	c15.2,0.1,30.5,0.2,45.7,0.4c1.3,0,3-0.6,3.1,1.7s-1.5,2.5-3.2,2.5L770.6,422.6z"/>
<path class="st0" d="M761.4,98.7h-20.3c-1.5,0-3,0.2-3-2.2c0.1-2.1,1.5-1.9,2.8-1.9h41.2c1.4,0,2.8-0.1,2.8,2c0,2.4-1.5,2.1-3,2.1
	H761.4z"/>
<path class="st0" d="M277.2,387.5h-19.9c-1.4,0-2.8,0.1-2.8-2s1.1-2.1,2.7-2.1c13.6,0,27.2,0,40.9,0c1.5,0,2.7,0.2,2.6,2.2
	s-1.4,2-2.8,2L277.2,387.5z"/>
<path class="st0" d="M334.7,55.8c-4.6,0-9.2,0-13.8,0c-1.5,0-3.6,0.5-3.6-2c-0.1-2.7,2.3-2.5,3.8-2.4c8.7,0.5,17.4,0,26.1,0.2
	c1,0,2.1,0,3.1,0c1.2,0,2.8-0.3,2.6,1.7c0,1.3-1,2.4-2.4,2.4c-0.1,0-0.2,0-0.4,0C345,55.7,339.8,55.8,334.7,55.8z"/>
<path class="st0" d="M417.5,405.4h14.4c1.5,0,3-0.2,3,2.1c0,2.1-1.4,2-2.8,2h-29.5c-1.4,0-2.8,0.2-2.8-2c-0.1-2.3,1.4-2.2,3-2.2
	L417.5,405.4z"/>
<path class="st0" d="M518.8,165.9c-4.5,0-8.9,0-13.4,0c-1.4,0-2.4-0.2-2.5-2s0.8-2.2,2.3-2.2c9.3,0,18.5,0,27.8,0
	c1.6,0,2.3,0.5,2.3,2.2c0,1.7-1.1,2-2.5,2C528.2,165.9,523.5,165.9,518.8,165.9z"/>
<path class="st0" d="M722,278.8c-4.1,0-8.2,0-12.3,0c-1.5,0-3,0.2-3-2.2c0-2.1,1.4-2,2.8-2h25.4c1.4,0,2.8-0.2,2.8,2
	c0,2.3-1.5,2.2-3,2.2C730.5,278.8,726.3,278.8,722,278.8z"/>
<path class="st0" d="M248.6,396.5h-11.7c-1.5,0-3,0.2-3-2.1c0-2.1,1.4-2,2.8-2c8.2-0.1,16.4,0.4,24.6-0.7c1.7-0.2,2.2,0.6,2.2,2.2
	s-0.3,2.6-2.2,2.6C257,396.4,252.8,396.5,248.6,396.5z"/>
<path class="st0" d="M297.4,243c3.1,0,6.2,0,9.3,0c1.6,0,2.3,0.6,2.2,2.2s-0.9,1.9-2.2,1.9c-6.2,0-12.4-0.1-18.6,0
	c-2,0-2.3-1.4-2.4-2.7c-0.3-1.9,1.4-1.4,2.4-1.4C291.2,242.9,294.3,243,297.4,243z"/>
<path class="st0" d="M744.4,111.8c2.6,0,5.3,0,7.9,0c1.6,0,3,0.2,3.1,2.3s-1.6,1.8-2.9,1.8c-5.4,0-10.8,0-16.1,0c-1.5,0-3,0.2-3-2.2
	c0-2.3,1.8-2,3.2-2C739.2,111.8,741.8,111.8,744.4,111.8z"/>
<path class="st0" d="M403.5,396.5h7.6c1.1-0.2,2.2,0.6,2.4,1.7c0,0.2,0,0.3,0,0.5c0.1,1.9-1.2,1.8-2.5,1.9c-5.1,0.5-10.2,0.5-15.2,0
	c-1.3-0.1-2.2-0.3-2.2-1.9c-0.1-1.2,0.8-2.2,1.9-2.3c0.2,0,0.3,0,0.5,0L403.5,396.5z"/>
<path class="st0" d="M553.1,161.8c2.5,0,5,0,7.6,0c1.3,0,2.3,0.2,2.2,1.9c0,1.4-0.7,2.2-2,2.2c-5.4,0-10.8,0-16.1,0
	c-1.4,0-1.7-0.8-1.8-2c0-1.4,0.4-2.2,1.9-2.1C547.6,161.8,550.4,161.8,553.1,161.8z"/>
<path class="st0" d="M578.8,165.9c-2.1,0-4.1,0-6.2,0c-1.4,0-2.1-0.4-2.2-1.9s0.7-2.2,2.2-2.2c4.1,0,8.2,0,12.3,0c1.5,0,2,0.7,2,2.1
	c0,1.4-0.6,2.1-2,2C582.9,165.9,580.8,165.9,578.8,165.9z"/>
<path class="st0" d="M279.2,396.5c-1.6,0-3.2-0.1-4.8,0c-2.2,0.2-2.7-0.8-2.7-2.8c0.1-2.4,1.5-2,3-1.9c2.8,0.1,5.6,0.1,8.4,0
	c1.5-0.1,3-0.6,3.1,1.8s-0.8,3.1-3,2.9C281.9,396.4,280.5,396.5,279.2,396.5z"/>
<path class="st0" d="M285.6,51.6c1.8,0,3.7,0.1,5.5,0c1.1-0.1,2.1-0.4,2,1.3c-0.1,1.4,0.3,2.9-1.9,2.9c-4,0-8,0-12,0
	c-1.6,0-1.9-0.8-1.9-2.2c0-1.4,0.5-1.9,1.8-1.9C281.3,51.7,283.5,51.7,285.6,51.6L285.6,51.6z"/>
<path class="st0" d="M450.3,409.5h-5.5c-1.1,0.1-2.2-0.6-2.3-1.8c0-0.2,0-0.4,0-0.6c0-1.6,1-1.8,2.3-1.8c3.5,0,7.1,0,10.6,0
	c1.6,0,2.3,0.6,2.2,2.2s-0.8,1.9-2.2,1.9C453.7,409.5,452,409.5,450.3,409.5z"/>
<path class="st0" d="M753.4,278.8c-1.7,0-3.4,0-5.2,0c-1.5,0-2.3-0.5-2.3-2.2c0-1.5,0.7-2,2.1-2c3.4,0,6.9,0.1,10.3,0
	c2.2-0.1,2.5,1.6,2.5,2.9c0,1.8-1.6,1.1-2.7,1.2C756.6,278.8,755,278.8,753.4,278.8z"/>
<path class="st0" d="M119.9,111.5c1.7,0,3.4,0,5.1,0s2.3,0.6,2.2,2.2s-0.8,1.9-2.2,1.9c-3.4,0-6.8,0-10.3,0c-1.5,0-2-0.6-2-2.1
	s0.5-2.1,2-2.1C116.4,111.6,118.2,111.5,119.9,111.5z"/>
<path class="st0" d="M769.8,115.9c-1.6,0-3.2,0-4.8,0c-1.2,0-2-0.3-2-1.7c0-1.4,0.4-2.4,1.8-2.4c3.4-0.1,6.9,0,10.3,0
	c1.4,0,1.6,1,1.6,2.1s-0.4,2-1.8,2C773.3,115.9,771.6,115.9,769.8,115.9L769.8,115.9z"/>
<path class="st0" d="M293.3,251.7c0.9-0.1,1.8-0.3,2.7-0.4c1.3-0.1,2.6-0.3,2.6,1.7c0,1.5-0.1,2.9-2,3c-2.9,0.1-5.7,0.1-8.6,0
	c-1.4,0-1.8-1.1-1.9-2.4s0.9-1.6,2-1.7c1.7-0.1,3.4-0.3,5-0.4L293.3,251.7z"/>
<path class="st0" d="M117.7,492.1h-4.1c-1.3,0-2.2-0.6-2.2-2c0-1.2,0.6-1.8,1.8-2.1c3.4-0.8,6.7-0.1,10.1,0.1c0.8,0,1,0.7,1.1,1.5
	c0.2,1-0.5,2-1.5,2.3c0,0-0.1,0-0.1,0c-1.7,0.3-3.4,0.3-5.1,0.4L117.7,492.1z"/>
<path class="st0" d="M310.6,256.1c-2-0.1-4,0.5-3.9-2.3c0.1-1.6,0.5-3,2.3-2.4c2,0.7,5.6-0.8,5.8,2.6
	C315,256.6,312.1,255.9,310.6,256.1z"/>
</svg>
