<?xml version="1.0" encoding="utf-8"?>
<!-- Generator: Adobe Illustrator 22.1.0, SVG Export Plug-In . SVG Version: 6.00 Build 0)  -->
<svg version="1.1" id="Lag_1" xmlns="http://www.w3.org/2000/svg" xmlns:xlink="http://www.w3.org/1999/xlink" x="0px" y="0px"
	 viewBox="0 0 488 104" style="enable-background:new 0 0 488 104;" xml:space="preserve">
<style type="text/css">
	.st0{fill:#FFFFFF;}
</style>
<g>
	<path class="st0" d="M10,31.9h15.6v6.4c3.5-3,6.7-5.1,9.6-6.2c2.9-1.2,5.8-1.7,8.8-1.7c6.2,0,11.4,2.2,15.7,6.5
		c3.6,3.7,5.4,9.1,5.4,16.2v41.1H49.7V66.9c0-7.4-0.3-12.3-1-14.8c-0.7-2.4-1.8-4.3-3.5-5.6c-1.7-1.3-3.7-1.9-6.1-1.9
		c-3.2,0-5.9,1.1-8.1,3.2c-2.3,2.1-3.8,5-4.7,8.8c-0.5,1.9-0.7,6.1-0.7,12.6v24.9H10V31.9z"/>
	<path class="st0" d="M142.5,67.5H92.4c0.7,4.4,2.7,7.9,5.8,10.5c3.1,2.6,7.2,3.9,12,3.9c5.8,0,10.8-2,15-6.1l13.1,6.2
		c-3.3,4.6-7.2,8.1-11.8,10.3c-4.6,2.2-10,3.3-16.3,3.3c-9.8,0-17.7-3.1-23.8-9.2c-6.1-6.2-9.2-13.9-9.2-23.1
		c0-9.5,3.1-17.4,9.2-23.6c6.1-6.3,13.8-9.4,23-9.4c9.8,0,17.7,3.1,23.9,9.4c6.1,6.3,9.2,14.5,9.2,24.8L142.5,67.5z M126.9,55.2
		c-1-3.5-3.1-6.3-6.1-8.5s-6.6-3.3-10.6-3.3c-4.3,0-8.2,1.2-11.4,3.7c-2.1,1.5-4,4.2-5.7,8.1H126.9z"/>
	<path class="st0" d="M157,9h15.6v22.9h9.3v13.4h-9.3v48.7H157V45.4h-8V31.9h8V9z"/>
	<path class="st0" d="M251,44.5l-13,7.1c-2.4-2.6-4.9-4.3-7.2-5.3c-2.4-1-5.2-1.5-8.4-1.5c-5.8,0-10.6,1.7-14.2,5.2
		c-3.6,3.5-5.4,7.9-5.4,13.4c0,5.3,1.7,9.6,5.2,12.9c3.5,3.3,8,5,13.7,5c7,0,12.4-2.4,16.3-7.1l12.3,8.4c-6.7,8.7-16.1,13-28.2,13
		c-10.9,0-19.5-3.2-25.7-9.7c-6.2-6.5-9.3-14.1-9.3-22.7c0-6,1.5-11.6,4.5-16.6c3-5.1,7.2-9,12.6-11.9c5.4-2.9,11.4-4.3,18.1-4.3
		c6.2,0,11.7,1.2,16.6,3.7C243.9,36.5,247.9,40,251,44.5z"/>
	<path class="st0" d="M263.4,7.9H279v86.2h-15.6V7.9z"/>
	<path class="st0" d="M355.4,67.5h-50.1c0.7,4.4,2.7,7.9,5.8,10.5c3.1,2.6,7.2,3.9,12,3.9c5.8,0,10.8-2,15-6.1l13.1,6.2
		c-3.3,4.6-7.2,8.1-11.8,10.3c-4.6,2.2-10,3.3-16.3,3.3c-9.8,0-17.7-3.1-23.8-9.2c-6.1-6.2-9.2-13.9-9.2-23.1
		c0-9.5,3.1-17.4,9.2-23.6c6.1-6.3,13.8-9.4,23-9.4c9.8,0,17.7,3.1,23.9,9.4c6.1,6.3,9.2,14.5,9.2,24.8L355.4,67.5z M339.8,55.2
		c-1-3.5-3.1-6.3-6.1-8.5s-6.6-3.3-10.6-3.3c-4.3,0-8.2,1.2-11.4,3.7c-2.1,1.5-4,4.2-5.7,8.1H339.8z"/>
	<path class="st0" d="M413.9,31.9h15.6v62.2h-15.6v-6.6c-3,2.9-6.1,5-9.2,6.3c-3.1,1.3-6.4,1.9-10,1.9c-8,0-15-3.1-20.8-9.3
		c-5.9-6.2-8.8-14-8.8-23.2c0-9.6,2.8-17.5,8.5-23.6c5.7-6.1,12.6-9.2,20.7-9.2c3.7,0,7.2,0.7,10.5,2.1c3.3,1.4,6.3,3.5,9.1,6.3
		V31.9z M397.5,44.7c-4.8,0-8.8,1.7-12,5.1c-3.2,3.4-4.8,7.8-4.8,13.1c0,5.4,1.6,9.8,4.9,13.3s7.2,5.2,12,5.2c4.9,0,9-1.7,12.2-5.1
		c3.2-3.4,4.8-7.9,4.8-13.4c0-5.4-1.6-9.8-4.8-13.1C406.5,46.4,402.4,44.7,397.5,44.7z"/>
	<path class="st0" d="M442.6,31.9H456v7.8c1.4-3.1,3.4-5.4,5.8-7s5-2.4,7.9-2.4c2,0,4.1,0.5,6.3,1.6l-4.9,13.4
		c-1.8-0.9-3.3-1.4-4.5-1.4c-2.4,0-4.4,1.5-6.1,4.5s-2.5,8.8-2.5,17.5l0.1,3v25.1h-15.5V31.9z"/>
</g>
</svg>
