<svg id="Lag_1" data-name="Lag 1" xmlns="http://www.w3.org/2000/svg" viewBox="0 0 466 87.8"><title>netclear_black</title><path d="M10,31.9H25.6v6.4a34.16,34.16,0,0,1,9.6-6.2A22.59,22.59,0,0,1,44,30.4a21.36,21.36,0,0,1,15.7,6.5q5.4,5.55,5.4,16.2V94.2H49.7V66.9c0-7.4-.3-12.3-1-14.8a10.41,10.41,0,0,0-3.5-5.6,9.65,9.65,0,0,0-6.1-1.9A11.33,11.33,0,0,0,31,47.8a16.62,16.62,0,0,0-4.7,8.8c-.5,1.9-.7,6.1-.7,12.6V94.1H10Z" transform="translate(-10 -7.9)"/><path d="M142.5,67.5H92.4A16.69,16.69,0,0,0,98.2,78c3.1,2.6,7.2,3.9,12,3.9a20.69,20.69,0,0,0,15-6.1L138.3,82a31.18,31.18,0,0,1-11.8,10.3,37.33,37.33,0,0,1-16.3,3.3c-9.8,0-17.7-3.1-23.8-9.2a31.67,31.67,0,0,1-9.2-23.1c0-9.5,3.1-17.4,9.2-23.6s13.8-9.4,23-9.4c9.8,0,17.7,3.1,23.9,9.4s9.2,14.5,9.2,24.8ZM126.9,55.2a15.76,15.76,0,0,0-6.1-8.5,17.58,17.58,0,0,0-10.6-3.3,18.13,18.13,0,0,0-11.4,3.7q-3.15,2.25-5.7,8.1Z" transform="translate(-10 -7.9)"/><path d="M157,9h15.6V31.9h9.3V45.3h-9.3V94H157V45.4h-8V31.9h8Z" transform="translate(-10 -7.9)"/><path d="M251,44.5l-13,7.1a19.25,19.25,0,0,0-15.6-6.8c-5.8,0-10.6,1.7-14.2,5.2a17.78,17.78,0,0,0-5.4,13.4c0,5.3,1.7,9.6,5.2,12.9s8,5,13.7,5c7,0,12.4-2.4,16.3-7.1l12.3,8.4c-6.7,8.7-16.1,13-28.2,13-10.9,0-19.5-3.2-25.7-9.7a32.56,32.56,0,0,1-4.8-39.3,31.44,31.44,0,0,1,12.6-11.9,37.52,37.52,0,0,1,18.1-4.3,35.88,35.88,0,0,1,16.6,3.7A30.5,30.5,0,0,1,251,44.5Z" transform="translate(-10 -7.9)"/><path d="M263.4,7.9H279V94.1H263.4Z" transform="translate(-10 -7.9)"/><path d="M355.4,67.5H305.3A16.69,16.69,0,0,0,311.1,78c3.1,2.6,7.2,3.9,12,3.9a20.69,20.69,0,0,0,15-6.1L351.2,82a31.18,31.18,0,0,1-11.8,10.3,37.33,37.33,0,0,1-16.3,3.3c-9.8,0-17.7-3.1-23.8-9.2a31.67,31.67,0,0,1-9.2-23.1c0-9.5,3.1-17.4,9.2-23.6s13.8-9.4,23-9.4c9.8,0,17.7,3.1,23.9,9.4s9.2,14.5,9.2,24.8ZM339.8,55.2a15.76,15.76,0,0,0-6.1-8.5,17.58,17.58,0,0,0-10.6-3.3,18.13,18.13,0,0,0-11.4,3.7q-3.15,2.25-5.7,8.1Z" transform="translate(-10 -7.9)"/><path d="M413.9,31.9h15.6V94.1H413.9V87.5a30.27,30.27,0,0,1-9.2,6.3,25.45,25.45,0,0,1-10,1.9c-8,0-15-3.1-20.8-9.3s-8.8-14-8.8-23.2c0-9.6,2.8-17.5,8.5-23.6a27.34,27.34,0,0,1,20.7-9.2,26.61,26.61,0,0,1,10.5,2.1,28.69,28.69,0,0,1,9.1,6.3V31.9ZM397.5,44.7a15.8,15.8,0,0,0-12,5.1c-3.2,3.4-4.8,7.8-4.8,13.1s1.6,9.8,4.9,13.3a15.69,15.69,0,0,0,12,5.2,16.08,16.08,0,0,0,12.2-5.1c3.2-3.4,4.8-7.9,4.8-13.4s-1.6-9.8-4.8-13.1A16.45,16.45,0,0,0,397.5,44.7Z" transform="translate(-10 -7.9)"/><path d="M442.6,31.9H456v7.8a16.25,16.25,0,0,1,5.8-7,13.75,13.75,0,0,1,14.2-.8l-4.9,13.4a10.81,10.81,0,0,0-4.5-1.4c-2.4,0-4.4,1.5-6.1,4.5S458,57.2,458,65.9l.1,3V94H442.6V31.9Z" transform="translate(-10 -7.9)"/></svg>